<svg width="1241" height="771" viewBox="0 0 1241 771" fill="none" xmlns="http://www.w3.org/2000/svg">
<rect x="2.5" y="2.5" width="1236" height="766" rx="137.5" stroke="black" stroke-width="5"/>
<circle cx="371.5" cy="138.5" r="124.5" fill="#FF0000"/>
<circle cx="620.5" cy="387.5" r="124.5" fill="#00FF00"/>
<circle cx="869.5" cy="636.5" r="124.5" fill="#0000FF"/>
<path d="M770.453 154.961H818.969V166H756.883V63.625H770.453V154.961ZM828.883 127.258C828.883 119.805 830.336 113.102 833.242 107.148C836.195 101.195 840.273 96.6016 845.477 93.3672C850.727 90.1328 856.703 88.5156 863.406 88.5156C873.766 88.5156 882.133 92.1016 888.508 99.2734C894.93 106.445 898.141 115.984 898.141 127.891V128.805C898.141 136.211 896.711 142.867 893.852 148.773C891.039 154.633 886.984 159.203 881.688 162.484C876.438 165.766 870.391 167.406 863.547 167.406C853.234 167.406 844.867 163.82 838.445 156.648C832.07 149.477 828.883 139.984 828.883 128.172V127.258ZM841.961 128.805C841.961 137.242 843.906 144.016 847.797 149.125C851.734 154.234 856.984 156.789 863.547 156.789C870.156 156.789 875.406 154.211 879.297 149.055C883.188 143.852 885.133 136.586 885.133 127.258C885.133 118.914 883.141 112.164 879.156 107.008C875.219 101.805 869.969 99.2031 863.406 99.2031C856.984 99.2031 851.805 101.758 847.867 106.867C843.93 111.977 841.961 119.289 841.961 128.805ZM911.359 127.328C911.359 115.469 914.102 106.047 919.586 99.0625C925.07 92.0312 932.336 88.5156 941.383 88.5156C950.664 88.5156 957.906 91.7969 963.109 98.3594L963.742 89.9219H975.625V164.172C975.625 174.016 972.695 181.773 966.836 187.445C961.023 193.117 953.195 195.953 943.352 195.953C937.867 195.953 932.5 194.781 927.25 192.438C922 190.094 917.992 186.883 915.227 182.805L921.977 175C927.555 181.891 934.375 185.336 942.438 185.336C948.766 185.336 953.688 183.555 957.203 179.992C960.766 176.43 962.547 171.414 962.547 164.945V158.406C957.344 164.406 950.242 167.406 941.242 167.406C932.336 167.406 925.117 163.82 919.586 156.648C914.102 149.477 911.359 139.703 911.359 127.328ZM924.438 128.805C924.438 137.383 926.195 144.133 929.711 149.055C933.227 153.93 938.148 156.367 944.477 156.367C952.68 156.367 958.703 152.641 962.547 145.188V110.453C958.562 103.188 952.586 99.5547 944.617 99.5547C938.289 99.5547 933.344 102.016 929.781 106.938C926.219 111.859 924.438 119.148 924.438 128.805ZM991.867 127.258C991.867 119.805 993.32 113.102 996.227 107.148C999.18 101.195 1003.26 96.6016 1008.46 93.3672C1013.71 90.1328 1019.69 88.5156 1026.39 88.5156C1036.75 88.5156 1045.12 92.1016 1051.49 99.2734C1057.91 106.445 1061.12 115.984 1061.12 127.891V128.805C1061.12 136.211 1059.7 142.867 1056.84 148.773C1054.02 154.633 1049.97 159.203 1044.67 162.484C1039.42 165.766 1033.38 167.406 1026.53 167.406C1016.22 167.406 1007.85 163.82 1001.43 156.648C995.055 149.477 991.867 139.984 991.867 128.172V127.258ZM1004.95 128.805C1004.95 137.242 1006.89 144.016 1010.78 149.125C1014.72 154.234 1019.97 156.789 1026.53 156.789C1033.14 156.789 1038.39 154.211 1042.28 149.055C1046.17 143.852 1048.12 136.586 1048.12 127.258C1048.12 118.914 1046.12 112.164 1042.14 107.008C1038.2 101.805 1032.95 99.2031 1026.39 99.2031C1019.97 99.2031 1014.79 101.758 1010.85 106.867C1006.91 111.977 1004.95 119.289 1004.95 128.805Z" fill="black"/>
<path d="M198.453 653.961H246.969V665H184.883V562.625H198.453V653.961ZM256.883 626.258C256.883 618.805 258.336 612.102 261.242 606.148C264.195 600.195 268.273 595.602 273.477 592.367C278.727 589.133 284.703 587.516 291.406 587.516C301.766 587.516 310.133 591.102 316.508 598.273C322.93 605.445 326.141 614.984 326.141 626.891V627.805C326.141 635.211 324.711 641.867 321.852 647.773C319.039 653.633 314.984 658.203 309.688 661.484C304.438 664.766 298.391 666.406 291.547 666.406C281.234 666.406 272.867 662.82 266.445 655.648C260.07 648.477 256.883 638.984 256.883 627.172V626.258ZM269.961 627.805C269.961 636.242 271.906 643.016 275.797 648.125C279.734 653.234 284.984 655.789 291.547 655.789C298.156 655.789 303.406 653.211 307.297 648.055C311.188 642.852 313.133 635.586 313.133 626.258C313.133 617.914 311.141 611.164 307.156 606.008C303.219 600.805 297.969 598.203 291.406 598.203C284.984 598.203 279.805 600.758 275.867 605.867C271.93 610.977 269.961 618.289 269.961 627.805ZM339.359 626.328C339.359 614.469 342.102 605.047 347.586 598.062C353.07 591.031 360.336 587.516 369.383 587.516C378.664 587.516 385.906 590.797 391.109 597.359L391.742 588.922H403.625V663.172C403.625 673.016 400.695 680.773 394.836 686.445C389.023 692.117 381.195 694.953 371.352 694.953C365.867 694.953 360.5 693.781 355.25 691.438C350 689.094 345.992 685.883 343.227 681.805L349.977 674C355.555 680.891 362.375 684.336 370.438 684.336C376.766 684.336 381.688 682.555 385.203 678.992C388.766 675.43 390.547 670.414 390.547 663.945V657.406C385.344 663.406 378.242 666.406 369.242 666.406C360.336 666.406 353.117 662.82 347.586 655.648C342.102 648.477 339.359 638.703 339.359 626.328ZM352.438 627.805C352.438 636.383 354.195 643.133 357.711 648.055C361.227 652.93 366.148 655.367 372.477 655.367C380.68 655.367 386.703 651.641 390.547 644.188V609.453C386.562 602.188 380.586 598.555 372.617 598.555C366.289 598.555 361.344 601.016 357.781 605.938C354.219 610.859 352.438 618.148 352.438 627.805ZM419.867 626.258C419.867 618.805 421.32 612.102 424.227 606.148C427.18 600.195 431.258 595.602 436.461 592.367C441.711 589.133 447.688 587.516 454.391 587.516C464.75 587.516 473.117 591.102 479.492 598.273C485.914 605.445 489.125 614.984 489.125 626.891V627.805C489.125 635.211 487.695 641.867 484.836 647.773C482.023 653.633 477.969 658.203 472.672 661.484C467.422 664.766 461.375 666.406 454.531 666.406C444.219 666.406 435.852 662.82 429.43 655.648C423.055 648.477 419.867 638.984 419.867 627.172V626.258ZM432.945 627.805C432.945 636.242 434.891 643.016 438.781 648.125C442.719 653.234 447.969 655.789 454.531 655.789C461.141 655.789 466.391 653.211 470.281 648.055C474.172 642.852 476.117 635.586 476.117 626.258C476.117 617.914 474.125 611.164 470.141 606.008C466.203 600.805 460.953 598.203 454.391 598.203C447.969 598.203 442.789 600.758 438.852 605.867C434.914 610.977 432.945 618.289 432.945 627.805Z" fill="black"/>
</svg>
